<?xml version="1.0" encoding="iso-8859-1"?>
<!-- Uploaded to: SVG Repo, www.svgrepo.com, Generator: SVG Repo Mixer Tools -->
<svg fill="#000000" height="800px" width="800px" version="1.1" id="Layer_1" xmlns="http://www.w3.org/2000/svg" xmlns:xlink="http://www.w3.org/1999/xlink" 
	 viewBox="0 0 512.007 512.007" xml:space="preserve">
<g>
	<g>
		<g>
			<path d="M121.835,255.249c6.229,16.196,26.803,68.42,41.737,90.82l1.348,2.039c10.957,16.614,29.295,44.425,91.085,44.425
				c61.79,0,80.128-27.81,91.085-44.425l1.348-2.039c14.933-22.4,35.507-74.624,41.737-90.82c11.145-2.773,19.43-12.86,19.43-24.849
				v-34.133c0-11.127-7.134-20.617-17.067-24.141V128c0-33.69-17.741-95.923-83.362-101.931c-0.128-4.028-1.459-7.27-2.944-9.668
				C297.844,2.85,274.292,0,256.005,0c-151.842,0-153.6,143.616-153.6,145.067c0,4.71,3.814,8.525,8.516,8.525h0.017
				c4.702,0,8.516-3.806,8.533-8.508c0.017-5.231,1.937-128.017,136.533-128.017c24.132,0,33.801,5.222,35.712,8.311
				c0.265,0.435,0.99,1.604-0.683,4.941c-1.323,2.645-1.178,5.786,0.375,8.303c1.562,2.509,4.301,4.045,7.262,4.045
				c75.657,0,76.791,81.86,76.8,85.333v51.2c0,4.71,3.814,8.533,8.533,8.533c4.71,0,8.533,3.831,8.533,8.533V230.4
				c0,4.702-3.823,8.533-8.533,8.533c-3.558,0-6.741,2.21-7.996,5.538c-0.247,0.674-25.446,67.644-41.771,92.126l-1.399,2.116
				c-10.223,15.514-24.235,36.753-76.834,36.753c-52.599,0-66.611-21.239-76.834-36.753l-1.399-2.116
				c-16.324-24.482-41.523-91.452-41.771-92.126c-1.254-3.328-4.437-5.538-7.996-5.538c-4.71,0-8.533-3.831-8.533-8.533v-34.133
				c0-2.313,0.922-4.412,2.423-5.948c3.089,6.955,9.421,13.21,20.053,14.268l29.193,21.897c2.27,16.623,16.418,29.517,33.664,29.517
				h17.067c18.825,0,34.133-15.309,34.133-34.133c0,18.825,15.309,34.133,34.133,34.133h17.067
				c17.237,0,31.394-12.894,33.664-29.517l31.189-23.39c3.772-2.825,4.54-8.175,1.707-11.947c-2.825-3.772-8.175-4.548-11.947-1.707
				l-21.751,16.316c-3.251-10.402-12.86-18.022-24.329-18.022h-34.133c-14.114,0-25.6,11.486-25.6,25.6
				c0-14.114-11.486-25.6-25.6-25.6h-34.133c-11.469,0-21.077,7.62-24.328,18.022l-16.282-12.211
				c6.716-16.23,12.8-40.235,14.524-57.088c26.897-0.478,104.713-3.763,139.332-25.37c7.851,30.31,33.058,55.817,34.321,57.08
				c3.336,3.336,8.73,3.336,12.066,0c3.336-3.337,3.336-8.73,0-12.066c-0.316-0.316-31.633-31.983-31.633-62.234
				c0-3.831-2.56-7.202-6.255-8.226c-3.661-1.016-7.629,0.546-9.591,3.831c-12.425,20.693-93.022,29.995-146.287,29.995
				c-4.719,0-8.533,3.823-8.533,8.533c0,13.858-6.554,41.515-13.508,58.539c-2.722-1.638-3.49-4.693-3.558-7.339
				c0-4.71-3.814-8.533-8.533-8.533c-14.114,0-25.6,11.486-25.6,25.6V230.4C102.405,242.389,110.691,252.476,121.835,255.249z
				 M273.071,213.333c0-4.702,3.823-8.533,8.533-8.533h34.133c4.71,0,8.533,3.831,8.533,8.533v8.533
				c0,9.412-7.654,17.067-17.067,17.067h-17.067c-9.412,0-17.067-7.654-17.067-17.067V213.333z M187.738,213.333
				c0-4.702,3.823-8.533,8.533-8.533h34.133c4.71,0,8.533,3.831,8.533,8.533v8.533c0,9.412-7.654,17.067-17.067,17.067h-17.067
				c-9.412,0-17.067-7.654-17.067-17.067V213.333z"/>
			<path d="M298.663,307.226c0.009-4.702-3.797-8.533-8.499-8.559c-0.162,0-15.42-0.171-30.345-7.629
				c-2.398-1.203-5.231-1.203-7.629,0c-14.925,7.458-30.182,7.629-30.319,7.629c-4.719,0-8.533,3.823-8.533,8.533
				s3.814,8.533,8.533,8.533c0.725,0,16.853-0.094,34.133-7.646c17.28,7.552,33.408,7.646,34.133,7.646
				C294.84,315.733,298.646,311.927,298.663,307.226z"/>
			<path d="M247.471,324.267c-4.719,0-8.533,3.823-8.533,8.533c0,4.71,3.814,8.533,8.533,8.533h17.067
				c4.719,0,8.533-3.823,8.533-8.533c0-4.71-3.814-8.533-8.533-8.533H247.471z"/>
			<path d="M511.749,501.393l-8.721-34.756c-12.706-38.135-73.114-56.687-184.67-56.687c-0.879,0-1.758,0-2.645,0.009
				c-4.053,0.009-7.544,2.867-8.337,6.852l-17.067,84.975c-0.93,4.625,2.065,9.122,6.682,10.052
				c4.608,0.896,9.114-2.074,10.044-6.69l15.693-78.114c97.724,0.452,154.436,15.957,163.934,44.373l8.533,34.133
				c0.973,3.874,4.446,6.468,8.269,6.46c0.683,0,1.382-0.077,2.074-0.256C510.11,510.601,512.892,505.976,511.749,501.393z"/>
			<path d="M204.634,416.461c-0.794-3.994-4.292-6.861-8.363-6.861c-116.386,0-174.148,17.596-187.477,57.66l-8.533,34.133
				c-1.152,4.582,1.638,9.207,6.212,10.351C7.164,511.923,7.864,512,8.547,512c3.823,0,7.296-2.586,8.269-6.46l8.346-33.51
				c9.95-29.841,63.667-44.689,164.122-45.338l15.693,78.447c0.913,4.617,5.367,7.629,10.035,6.699
				c4.617-0.93,7.62-5.427,6.69-10.044L204.634,416.461z"/>
			<path d="M256.005,409.6c-14.114,0-25.6,11.486-25.6,25.6c0,11.11,7.159,20.489,17.067,24.021v44.245
				c0,4.71,3.814,8.533,8.533,8.533c4.719,0,8.533-3.823,8.533-8.533V459.23c9.907-3.541,17.067-12.919,17.067-24.03
				C281.605,421.086,270.119,409.6,256.005,409.6z M256.005,443.733c-4.71,0-8.533-3.831-8.533-8.533
				c0-4.702,3.823-8.533,8.533-8.533c4.71,0,8.533,3.831,8.533,8.533C264.538,439.902,260.715,443.733,256.005,443.733z"/>
		</g>
	</g>
</g>
</svg>